<?xml version="1.0" encoding="UTF-8"?>
<svg xmlns="http://www.w3.org/2000/svg" id="Layer_1" data-name="Layer 1" viewBox="0 0 24 24">
  <path d="m23.727,10.044c-1.687-4.222-6.354-7.324-11.227-7.525V.5c0-.276-.224-.5-.5-.5s-.5.224-.5.5v2.019C6.616,2.72,1.938,5.826.249,10.053c-.44,1.102-.303,2.35.368,3.339.683,1.007,1.813,1.608,3.025,1.608l7.857-.004v6.254c0,.965-.785,1.75-1.75,1.75-.985,0-1.75-.807-1.75-1.5,0-.276-.224-.5-.5-.5s-.5.224-.5.5c0,1.332,1.285,2.5,2.75,2.5,1.517,0,2.75-1.233,2.75-2.75v-6.254l7.833-.004c1.213,0,2.344-.602,3.026-1.608.67-.99.808-2.238.367-3.34Zm-1.195,2.778c-.496.732-1.317,1.17-2.198,1.17l-16.69.008c-.88,0-1.701-.438-2.197-1.169-.491-.726-.589-1.603-.269-2.407C2.779,6.417,7.33,3.509,12,3.509s9.199,2.904,10.799,6.906c.321.805.224,1.682-.268,2.407Z"/>
</svg>
